<svg xmlns="http://www.w3.org/2000/svg" width="1200" height="400" viewBox="0 0 1200 400" role="img" aria-labelledby="title desc">
  <title id="title">andypandy.org</title>
  <desc id="desc">A personal publishing system shown as an emerald route map connecting projects, writing, photos, travel, and apps.</desc>
  <defs>
    <pattern id="grid" width="30" height="30" patternUnits="userSpaceOnUse">
      <path d="M30 0H0V30" fill="none" stroke="#163d33" stroke-width="1"/>
    </pattern>
  </defs>
  <rect width="1200" height="400" rx="28" fill="#07110e"/>
  <rect width="1200" height="400" rx="28" fill="url(#grid)" opacity=".75"/>
  <g transform="translate(62 56)">
    <g font-family="ui-monospace, SFMono-Regular, Menlo, monospace" font-size="18" letter-spacing="3">
      <text x="0" y="0" fill="#34d399">PERSONAL PUBLISHING SYSTEM</text>
      <text x="0" y="250" fill="#6ee7b7">&gt; currently building<tspan fill="#f4f7f5"> _</tspan></text>
    </g>
    <text x="0" y="90" fill="#f4f7f5" font-family="-apple-system, BlinkMacSystemFont, Segoe UI, sans-serif" font-size="76" font-weight="760" letter-spacing="-4">andypandy.org</text>
    <text x="0" y="138" fill="#a8bbb4" font-family="-apple-system, BlinkMacSystemFont, Segoe UI, sans-serif" font-size="25">Projects, writing, photos, travel, and useful apps.</text>
    <path d="M0 180H560" stroke="#266556" stroke-width="2"/>
    <text x="0" y="216" fill="#d3ded9" font-family="ui-monospace, SFMono-Regular, Menlo, monospace" font-size="19">NEXT.JS · R2 · GITHUB · RSS · MICROPUB</text>
  </g>
  <g transform="translate(700 45)">
    <path d="M72 154H176M176 154V56M176 154V252M176 154H306" fill="none" stroke="#10b981" stroke-width="3"/>
    <circle cx="72" cy="154" r="38" fill="#0c241d" stroke="#34d399" stroke-width="3"/>
    <text x="72" y="148" text-anchor="middle" fill="#f4f7f5" font-family="ui-monospace, SFMono-Regular, Menlo, monospace" font-size="20" font-weight="700">ANDY</text>
    <text x="72" y="172" text-anchor="middle" fill="#6ee7b7" font-family="ui-monospace, SFMono-Regular, Menlo, monospace" font-size="16">.ORG</text>
    <g font-family="-apple-system, BlinkMacSystemFont, Segoe UI, sans-serif" font-size="19" font-weight="650">
      <rect x="132" y="20" width="176" height="72" rx="14" fill="#10251f" stroke="#266556" stroke-width="2"/>
      <text x="220" y="64" text-anchor="middle" fill="#dff7ed">writing / rss</text>
      <rect x="132" y="216" width="176" height="72" rx="14" fill="#10251f" stroke="#266556" stroke-width="2"/>
      <text x="220" y="260" text-anchor="middle" fill="#dff7ed">photos / travel</text>
      <rect x="306" y="118" width="176" height="72" rx="14" fill="#10251f" stroke="#266556" stroke-width="2"/>
      <text x="394" y="162" text-anchor="middle" fill="#dff7ed">projects / apps</text>
    </g>
    <circle cx="176" cy="154" r="8" fill="#34d399"/>
    <circle cx="306" cy="154" r="8" fill="#34d399"/>
  </g>
</svg>
